<svg width="4276" height="266" xmlns="http://www.w3.org/2000/svg" xmlns:xlink="http://www.w3.org/1999/xlink" xml:space="preserve" overflow="hidden"><g transform="translate(-87 -783)"><g><rect x="93.5" y="789.5" width="4265" height="253" stroke="#9DD5FA" stroke-width="6.875" stroke-linecap="butt" stroke-linejoin="miter" stroke-miterlimit="8" stroke-opacity="1" fill="#9DD5FA" fill-opacity="1"/><text fill="#21477A" fill-opacity="1" font-family="Georgia,Georgia_MSFontService,sans-serif" font-style="normal" font-variant="normal" font-weight="400" font-stretch="normal" font-size="92" text-anchor="start" direction="ltr" writing-mode="lr-tb" unicode-bidi="normal" text-decoration="none" transform="matrix(1 0 0 1 469.32 955)">Weekly</text><text fill="#21477A" fill-opacity="1" font-family="Georgia,Georgia_MSFontService,sans-serif" font-style="normal" font-variant="normal" font-weight="400" font-stretch="normal" font-size="83" text-anchor="start" direction="ltr" writing-mode="lr-tb" unicode-bidi="normal" text-decoration="none" transform="matrix(1 0 0 1 787.861 955)">Benchmark Snapshot</text><rect x="2458.5" y="886.5" width="91" height="157" stroke="#21477A" stroke-width="6.875" stroke-linecap="butt" stroke-linejoin="miter" stroke-miterlimit="8" stroke-opacity="1" fill="#21477A" fill-opacity="1"/><path d="M2458.5 878C2458.5 856.185 2478.87 838.5 2504 838.5 2529.13 838.5 2549.5 856.185 2549.5 878 2549.5 899.815 2529.13 917.5 2504 917.5 2478.87 917.5 2458.5 899.815 2458.5 878Z" stroke="#21477A" stroke-width="6.875" stroke-linecap="butt" stroke-linejoin="miter" stroke-miterlimit="8" stroke-opacity="1" fill="#21477A" fill-rule="evenodd" fill-opacity="1"/><rect x="2616.5" y="930.5" width="90.9998" height="114" stroke="#21477A" stroke-width="6.875" stroke-linecap="butt" stroke-linejoin="miter" stroke-miterlimit="8" stroke-opacity="1" fill="#21477A" fill-opacity="1"/><path d="M2616.5 916C2616.5 890.871 2636.87 870.5 2662 870.5 2687.13 870.5 2707.5 890.871 2707.5 916 2707.5 941.129 2687.13 961.5 2662 961.5 2636.87 961.5 2616.5 941.129 2616.5 916Z" stroke="#21477A" stroke-width="6.875" stroke-linecap="butt" stroke-linejoin="miter" stroke-miterlimit="8" stroke-opacity="1" fill="#21477A" fill-rule="evenodd" fill-opacity="1"/><rect x="2773.5" y="972.5" width="91" height="71.0002" stroke="#21477A" stroke-width="6.875" stroke-linecap="butt" stroke-linejoin="miter" stroke-miterlimit="8" stroke-opacity="1" fill="#21477A" fill-opacity="1"/><path d="M2773.5 966.5C2773.5 944.961 2793.87 927.5 2819 927.5 2844.13 927.5 2864.5 944.961 2864.5 966.5 2864.5 988.039 2844.13 1005.5 2819 1005.5 2793.87 1005.5 2773.5 988.039 2773.5 966.5Z" stroke="#21477A" stroke-width="6.875" stroke-linecap="butt" stroke-linejoin="miter" stroke-miterlimit="8" stroke-opacity="1" fill="#21477A" fill-rule="evenodd" fill-opacity="1"/><rect x="2969.5" y="886.5" width="90.9998" height="156" stroke="#21477A" stroke-width="6.875" stroke-linecap="butt" stroke-linejoin="miter" stroke-miterlimit="8" stroke-opacity="1" fill="#21477A" fill-opacity="1"/><path d="M2969.5 878C2969.5 856.185 2989.87 838.5 3015 838.5 3040.13 838.5 3060.5 856.185 3060.5 878 3060.5 899.815 3040.13 917.5 3015 917.5 2989.87 917.5 2969.5 899.815 2969.5 878Z" stroke="#21477A" stroke-width="6.875" stroke-linecap="butt" stroke-linejoin="miter" stroke-miterlimit="8" stroke-opacity="1" fill="#21477A" fill-rule="evenodd" fill-opacity="1"/><rect x="3126.5" y="930.5" width="92.0002" height="113" stroke="#21477A" stroke-width="6.875" stroke-linecap="butt" stroke-linejoin="miter" stroke-miterlimit="8" stroke-opacity="1" fill="#21477A" fill-opacity="1"/><path d="M3126.5 915.5C3126.5 890.095 3147.09 869.5 3172.5 869.5 3197.91 869.5 3218.5 890.095 3218.5 915.5 3218.5 940.905 3197.91 961.5 3172.5 961.5 3147.09 961.5 3126.5 940.905 3126.5 915.5Z" stroke="#21477A" stroke-width="6.875" stroke-linecap="butt" stroke-linejoin="miter" stroke-miterlimit="8" stroke-opacity="1" fill="#21477A" fill-rule="evenodd" fill-opacity="1"/><rect x="3284.5" y="971.5" width="91" height="71.0002" stroke="#21477A" stroke-width="6.875" stroke-linecap="butt" stroke-linejoin="miter" stroke-miterlimit="8" stroke-opacity="1" fill="#21477A" fill-opacity="1"/><path d="M3284.5 966.5C3284.5 944.961 3304.87 927.5 3330 927.5 3355.13 927.5 3375.5 944.961 3375.5 966.5 3375.5 988.039 3355.13 1005.5 3330 1005.5 3304.87 1005.5 3284.5 988.039 3284.5 966.5Z" stroke="#21477A" stroke-width="6.875" stroke-linecap="butt" stroke-linejoin="miter" stroke-miterlimit="8" stroke-opacity="1" fill="#21477A" fill-rule="evenodd" fill-opacity="1"/><rect x="3477.5" y="885.5" width="91" height="157" stroke="#21477A" stroke-width="6.875" stroke-linecap="butt" stroke-linejoin="miter" stroke-miterlimit="8" stroke-opacity="1" fill="#21477A" fill-opacity="1"/><path d="M3477.5 877C3477.5 855.185 3497.87 837.5 3523 837.5 3548.13 837.5 3568.5 855.185 3568.5 877 3568.5 898.815 3548.13 916.5 3523 916.5 3497.87 916.5 3477.5 898.815 3477.5 877Z" stroke="#21477A" stroke-width="6.875" stroke-linecap="butt" stroke-linejoin="miter" stroke-miterlimit="8" stroke-opacity="1" fill="#21477A" fill-rule="evenodd" fill-opacity="1"/><rect x="3635.5" y="929.5" width="91" height="114" stroke="#21477A" stroke-width="6.875" stroke-linecap="butt" stroke-linejoin="miter" stroke-miterlimit="8" stroke-opacity="1" fill="#21477A" fill-opacity="1"/><path d="M3635.5 915C3635.5 889.871 3655.87 869.5 3681 869.5 3706.13 869.5 3726.5 889.871 3726.5 915 3726.5 940.129 3706.13 960.5 3681 960.5 3655.87 960.5 3635.5 940.129 3635.5 915Z" stroke="#21477A" stroke-width="6.875" stroke-linecap="butt" stroke-linejoin="miter" stroke-miterlimit="8" stroke-opacity="1" fill="#21477A" fill-rule="evenodd" fill-opacity="1"/><rect x="3792.5" y="971.5" width="90.9998" height="71.0002" stroke="#21477A" stroke-width="6.875" stroke-linecap="butt" stroke-linejoin="miter" stroke-miterlimit="8" stroke-opacity="1" fill="#21477A" fill-opacity="1"/><path d="M3792.5 965.5C3792.5 943.961 3812.87 926.5 3838 926.5 3863.13 926.5 3883.5 943.961 3883.5 965.5 3883.5 987.039 3863.13 1004.5 3838 1004.5 3812.87 1004.5 3792.5 987.039 3792.5 965.5Z" stroke="#21477A" stroke-width="6.875" stroke-linecap="butt" stroke-linejoin="miter" stroke-miterlimit="8" stroke-opacity="1" fill="#21477A" fill-rule="evenodd" fill-opacity="1"/></g></g></svg>