<svg width="4272" height="714" xmlns="http://www.w3.org/2000/svg" xmlns:xlink="http://www.w3.org/1999/xlink" xml:space="preserve" overflow="hidden"><g transform="translate(-90 -786)"><rect x="93.5" y="789.5" width="4265" height="705" stroke="#9DD5FA" stroke-width="6.875" stroke-miterlimit="8" fill="#9DD5FA"/><text fill="#21477A" font-family="Georgia,Georgia_MSFontService,sans-serif" font-weight="400" font-size="138" transform="matrix(1 0 0 1 217.756 1193)">Weekly Benchmark Snapshot</text><rect x="2272.5" y="1054.5" width="133" height="438" stroke="#21477A" stroke-width="6.875" stroke-miterlimit="8" fill="#21477A"/><path d="M2272.5 1054C2272.5 1017.27 2302.27 987.5 2339 987.5 2375.73 987.5 2405.5 1017.27 2405.5 1054 2405.5 1090.73 2375.73 1120.5 2339 1120.5 2302.27 1120.5 2272.5 1090.73 2272.5 1054Z" stroke="#21477A" stroke-width="6.875" stroke-miterlimit="8" fill="#21477A" fill-rule="evenodd"/><rect x="2502.5" y="1177.5" width="133" height="317" stroke="#21477A" stroke-width="6.875" stroke-miterlimit="8" fill="#21477A"/><path d="M2502.5 1177C2502.5 1140.27 2532.27 1110.5 2569 1110.5 2605.73 1110.5 2635.5 1140.27 2635.5 1177 2635.5 1213.73 2605.73 1243.5 2569 1243.5 2532.27 1243.5 2502.5 1213.73 2502.5 1177Z" stroke="#21477A" stroke-width="6.875" stroke-miterlimit="8" fill="#21477A" fill-rule="evenodd"/><rect x="2731.5" y="1293.5" width="133" height="199" stroke="#21477A" stroke-width="6.875" stroke-miterlimit="8" fill="#21477A"/><path d="M2731.5 1293C2731.5 1256.27 2761.27 1226.5 2798 1226.5 2834.73 1226.5 2864.5 1256.27 2864.5 1293 2864.5 1329.73 2834.73 1359.5 2798 1359.5 2761.27 1359.5 2731.5 1329.73 2731.5 1293Z" stroke="#21477A" stroke-width="6.875" stroke-miterlimit="8" fill="#21477A" fill-rule="evenodd"/><rect x="2985.5" y="1056.5" width="133" height="438" stroke="#21477A" stroke-width="6.875" stroke-miterlimit="8" fill="#21477A"/><path d="M2985.5 1056C2985.5 1019.27 3015.27 989.5 3052 989.5 3088.73 989.5 3118.5 1019.27 3118.5 1056 3118.5 1092.73 3088.73 1122.5 3052 1122.5 3015.27 1122.5 2985.5 1092.73 2985.5 1056Z" stroke="#21477A" stroke-width="6.875" stroke-miterlimit="8" fill="#21477A" fill-rule="evenodd"/><rect x="3215.5" y="1179.5" width="133" height="317" stroke="#21477A" stroke-width="6.875" stroke-miterlimit="8" fill="#21477A"/><path d="M3215.5 1179C3215.5 1142.27 3245.27 1112.5 3282 1112.5 3318.73 1112.5 3348.5 1142.27 3348.5 1179 3348.5 1215.73 3318.73 1245.5 3282 1245.5 3245.27 1245.5 3215.5 1215.73 3215.5 1179Z" stroke="#21477A" stroke-width="6.875" stroke-miterlimit="8" fill="#21477A" fill-rule="evenodd"/><rect x="3444.5" y="1295.5" width="133" height="199" stroke="#21477A" stroke-width="6.875" stroke-miterlimit="8" fill="#21477A"/><path d="M3444.5 1295C3444.5 1258.27 3474.27 1228.5 3511 1228.5 3547.73 1228.5 3577.5 1258.27 3577.5 1295 3577.5 1331.73 3547.73 1361.5 3511 1361.5 3474.27 1361.5 3444.5 1331.73 3444.5 1295Z" stroke="#21477A" stroke-width="6.875" stroke-miterlimit="8" fill="#21477A" fill-rule="evenodd"/><rect x="3698.5" y="1055.5" width="133" height="438" stroke="#21477A" stroke-width="6.875" stroke-miterlimit="8" fill="#21477A"/><path d="M3698.5 1055C3698.5 1018.27 3728.27 988.5 3765 988.5 3801.73 988.5 3831.5 1018.27 3831.5 1055 3831.5 1091.73 3801.73 1121.5 3765 1121.5 3728.27 1121.5 3698.5 1091.73 3698.5 1055Z" stroke="#21477A" stroke-width="6.875" stroke-miterlimit="8" fill="#21477A" fill-rule="evenodd"/><rect x="3928.5" y="1178.5" width="133" height="317" stroke="#21477A" stroke-width="6.875" stroke-miterlimit="8" fill="#21477A"/><path d="M3928.5 1178C3928.5 1141.27 3958.27 1111.5 3995 1111.5 4031.73 1111.5 4061.5 1141.27 4061.5 1178 4061.5 1214.73 4031.73 1244.5 3995 1244.5 3958.27 1244.5 3928.5 1214.73 3928.5 1178Z" stroke="#21477A" stroke-width="6.875" stroke-miterlimit="8" fill="#21477A" fill-rule="evenodd"/><rect x="4157.5" y="1294.5" width="133" height="199" stroke="#21477A" stroke-width="6.875" stroke-miterlimit="8" fill="#21477A"/><path d="M4157.5 1294C4157.5 1257.27 4187.27 1227.5 4224 1227.5 4260.73 1227.5 4290.5 1257.27 4290.5 1294 4290.5 1330.73 4260.73 1360.5 4224 1360.5 4187.27 1360.5 4157.5 1330.73 4157.5 1294Z" stroke="#21477A" stroke-width="6.875" stroke-miterlimit="8" fill="#21477A" fill-rule="evenodd"/></g></svg>